<mxfile host="app.diagrams.net" modified="2024-05-18T17:20:08.591Z" agent="Mozilla/5.0 (Windows NT 10.0; Win64; x64) AppleWebKit/537.36 (KHTML, like Gecko) Chrome/125.0.0.0 Safari/537.36" etag="WUqnXFMYuT2iyZYfUt4d" version="24.4.4" type="github">
  <diagram name="PÃ¡gina-1" id="pWQJ-l5t9unnHgeNknyC">
    <mxGraphModel dx="989" dy="514" grid="1" gridSize="10" guides="1" tooltips="1" connect="1" arrows="1" fold="1" page="1" pageScale="1" pageWidth="827" pageHeight="1169" math="0" shadow="0">
      <root>
        <mxCell id="0" />
        <mxCell id="1" parent="0" />
        <mxCell id="oUqmdAfL7spH68sdHYfP-5" value="" style="shape=image;verticalLabelPosition=bottom;labelBackgroundColor=default;verticalAlign=top;aspect=fixed;imageAspect=0;image=data:image/png,iVBORw0KGgoAAAANSUhEUgAAAXgAAAIoCAIAAADsmWebAAAAAXNSR0IArs4c6QAAIABJREFUeAHtvfGXVNWdL5q/oNd68yY/QbLuZPGel9R6b6bvGBt9wDWIz9ZkvBqZHh+50g4DiWGiMzYR5oKaAYxIBoHICBoVZCCR1mqt1mqthkILqGYKVrVUz6okpV09t2Qq8TRMKw0c57313lxeqr70J1/3qare3X2qq7vqU4tVfM93f/f3+92fvc/n7L3PqdNfcPkhAkSACFQZgS9U2T/dEwEiQARcEg0HAREgAlVHgERTdYgZgAgQARINxwARIAJVR4BEU3WIGYAIEAESDccAESACVUeARFN1iBmACBABEg3HABEgAlVHgERTdYgZgAgQARINxwARIAJVR4BEU3WIGYAIEAESDccAESACVUeARFN1iBmACBABEg3HABEgAlVHgERTdYgZgAgQARINxwARIAJVR4BEU3WIGYAIEAESDccAESACVUeARFN1iBmACBABEg3HABEgAlVHgERTdYgZgAgQARINxwARIAJVR4BEU3WIGYAIEAESDccAESACVUeARFN1iBmACBABEg3HABEgAlVHgERTdYgZgAgQARINxwARIAJVR4BEU3WIGYAIEAESDccAESACVUeARFN1iBmACBABEg3HABEgAlVHgERTdYgZgAgQARINxwARIAJVR4BEU3WIGYAIEAESDccAESACVUeARFN1iBmACBABEg3HABEgAlVHgERTdYgZgAgQARINxwARIAJVR4BEU3WIGYAIEAESDccAESACVUeARFN1iBmACBABEg3HABEgAlVHgERTdYgZgAgQARINxwARIAJVR4BEU3WIGYAIEAESDccAESACVUeARFN1iBmACBABEg3HABEgAlVHgERTdYgZgAgQARINxwARIAJVR4BEU3WIGYAIEAESDccAESACVUeARFN1iBmACBABEg3HABEgAlVHgERTdYgZgAgQARINxwARIAJVR4BEU3WIGYAIEAESDccAESACVUeARFN1iBmACBABEg3HABEgAlVHgERTdYgZgAgQARINxwARIAJVR4BEU3WIGYAIEAESDccAESACVUeARFN1iBmACMxwBAZHnB8k3745uu9PYocOZ89WI1sSTTVQpU8iMGsQGBxxbo7uuy78zPWR568LP/NbIfzRL33PnkTjO6R0SARmDQJgmR2/iLuu+/7wuevCzyyPv+Z7A6pONKdTZ7siPb7nrR1u2r1z1Yb1+Ldp964pRrxt5X1fvWNpJpvVUUSuUOQ1nrqm48ktX71jaTDy9tRd0QMRMBAAy2xKHUPR9ZHnvh7dh0O/hOoSzenU2f/wxwt/b15zyZPWrzbctvK+puaA8S9w+9J9r3VOLsRX71ja1BwomXOFosnFqlxr1Yb1Tc2BfcFJNqSyc5Y2MgJgmevCz3w9um9wxHFd9+n0yevCz/wg+Y7vyFSRaIRlfv8P/njzT37ie97aoRDN2q1bMtlsJps9Gj+5auM64Z39k+KaCmxSoUin5JdMovELSfrRCIBldvwiviMdF67529SxorB/cGRYG/siV4topo1lXNcVotm0e5dGZNf+F5uaA19atODj4QJVu677sePsC3Z2RXqMqUomm90X7DwaP/Gxc80SbHKmuO7T9iiSWmdS5ha91xuyOho/IYGgKdLiCeSGQGKZyWZJNMCKgl8IaJYRn8I11WMZ13WrQjTTyTLliMZ13bmLFsi642PHWbt1s15bYaazafdO6AO3L5XNHWGTtofWoGjT7p3SJVKEGVNTc2Dt1i1S9LHjGIs41Op6p0eSEYc3td0l9Ldp966m5sCu/S/pVLUT6P0aZPTT4Ah4WQYrpq9HqzKXEcD9J5pMdvA//PHCL375a7933R/9b0tax/33f9y1zDsvmNBoKDmjcV1XmGLT7l2/GXZubLv7B1u3BCNv7wt2zl20QGY6Z1Jnm5oDgeK+7+nU2cLia6iwASxs0rpyBeybmgNCDVJ0U9tduuhovDArWbWhsF5bvXHd6dTZo/GTgeJGjxTt2v/iTW13F6czJ1uLO0q79r/kuq4QTVNzoHXlirVbt5xJpcRJ68r7ZA0oTrhHM6HxQONyCNSKZaoyozkaP/H7f3D9F7/8tf/5K//J5t/vzWue4l2VcYnGwP3GtruamgNnUikhmpva7sKaRSyFTaAU+6Pxk+CgM6mUWApTrN265TfDjsxWEGtfsLPIIPdBI0Iw0lPgow3rQTSrNxZk+cgURviuSF7cDB6Dhv9PDYEaskxViMZ13c0/+cnv/8H1v/e/NG/evUs2aCt/Tw3A0ns0WFLJ3MF13aPxE2uf3LJqw3o5mYU4ZMrQ1By4se0u3KUyiEaITBMNOEjYZPWG9UfjJ4pO7kZbMtmsTJdEk8lmd+5/adWG9eJNEw12l4wqJBqASWGKCNSWZapFNJprsBsyRaQqVC85o8lkB2WKkRnKZrKDgdsLd6xlhSKyEIfruvuCna0rV4ixcI090ezc/5JMT7AKQ56iubGtQD2yEzR38YLVhed9iissNaMh0QA0CtVAoOYsU0WimU6u8RINmEVWJWu3btFPo+gZCvpVr2jsiUZYY1+w8zfDzrVVz9hjfvteKyydVm9cL6uqm4qMIxMrY+kEosEGNmZMss3EPRp0E4VJICC/MJBnf6W6PC9T1d1fI0//N4N1AFlD/U//6x/hHrMu9UsW4gjcvvS2lffdtvI+2VKR+YvEFaJZu3XL0fgJ3GY6Gj+ZyQ7KiqmwqirelpJTelyiubHt7uI6qDA3KewlF7eQ5YZ64PalO/e/tGn3Tuy2yILoS4sWHI2f6Ir0yHyq5NKpsFYqPgEUuH3ppt27/nTstheJxq+h0oB+juezxjN4088y1Z3RSKfueuml6XlgT9Y+Tc2BuYsXtK5coU/OzNAg9mJaV67YXLypXCCaoUEsmuYuXrB57EmcykQTuGOpeGhqDtzUdvfpgd89SrN59y4dCKsz2M9dvGD/a52BO5aWI5rfDDu4rS6t0HOxBjxP2OQpIvBC5vR14WdeyJwWPzVhmekgminC5GP1TDZbcmL18bBTrqhCdKlV0qCktwr2XicfDzslU/VaUkMEKiPwg+Q7BaL54MwLmdPfTYSq+lRehUyqu3SqEJhFRIAITAMCfxI7JC9/kO/p3JfRrSPRaDQoE4F6Q+AHyXfujP3skeQ7L2TOvD98rlbNI9HUCnnGJQINhACJpoE6m00lArVCgERTK+QZlwg0EAIkmgbqbDaVCNQKARJNrZBnXCLQQAiQaBqos9lUIlArBEg0tUKecYlAAyFAommgzmZTiUCtECDR1Ap5xiUCDYQAiaaBOptNJQK1QoBEUyvkGZcINBACJJoG6mw2lQjUCgESTa2QZ1wi0EAIkGgaqLPZVCJQKwRINLVCnnGJQAMhQKJpoM5mU4lArRAg0dQKecYlAg2EAImmgTqbTSUCtUKARFMr5BmXCDQQAiSaBupsNpUI1AoBEk2tkGdcItBACJBoGqiz2VQiUCsESDS1Qp5xiUADIUCiaaDOZlOJQK0QINHUCnnGJQINhACJpoE6m00lArVCgERTK+QZlwg0EAIkmgbqbDaVCNQKARJNrZBnXCLQQAiQaBqos9lUIlArBEg0tUKecYlAAyFAommgzmZTiUCtECDR1Ap5xiUCDYQAiaaBOptNJQK1QoBEUyvkGZcINBACJJoG6mw2lQjUCgESTa2QZ1wi0EAIkGgaqLPZVCJQKwRINLVCnnGJQAMhQKJpoM5mU4lArRAg0dQKecYlAg2EAImmgTqbTSUCtUKARFMr5BmXCDQQAiSaBupsNpUI1AoBEk2tkGdcItBACJBoGqiz2VQiUCsESDS1Qp5xiUADIUCiaaDOZlOJQK0QINHUCnnGJQINhACJpoE6m00lArVCgERTK+QZlwg0EAIkmgbqbDaVCNQKARJNrZBnXCLQQAiQaBqos9lUIlArBEg0tUKecYlAAyFAommgzmZTiUCtECDR1Ap5xiUCDYQAiaaBOptNJQK1QoBEUyvkGZcINBACJJoG6mw2lQjUCgESTa2QZ1wi0EAIkGgaqLPZVCJQKwRINLVCnnGJQAMhQKJpoM5mU4lArRAg0dQKecYlAg2EAImmgTqbTSUCtUKARFMr5BmXCDQQAiSaBupsNpUI1AoBEk2tkGdcItBACJBoGqiz2VQiUCsESDS1Qp5xiUADIUCiaaDOZlOJQK0QINHUCnnGJQINhACJpoE6m00lArVCgERTK+QZlwg0EAIkmgbqbDaVCNQKAX+I5nTq7M79L63asH7tk1v2vdaZyWZr1R7GJQLTj8DN0X1fj+6b/rizKKIPRLNp986m5oDxb9PunbMIBaZKBKaCwHXhZ64LPzNpD4MjzuCIU6F6OPfLV7IpMXglm6pgfDyffX/4XAVXtSqaKtHse61TKOamtrtWb1jf9tCawB1Lm5oDqzeur1WTGJcITDMCUySa6yPPXRd+5oXM6XJpL4+/KkT2SvbsdeFnvpvoLmnpjH56XfiZ6yPPlSytrXKqRHNj211NzYHAHUvRjMzQ4ObduzJDXD0BEgp1jsBUiEa447rwM8vjr5WDCUTz/vC5b8dfOzx0bXbjtf9uonvTwLtefc01UyUamc6s3bqlXEuOxk8cjZ/QuzaZbFaUusqZ1Nl9wc6d+1/qivRovchH4yf2BTv3BTvPpM56S0VzJnX2aPwE7MWVjouK8AZ7FLmu+7HjSKyuSM/HzucmtJlsVopKVoRbb5IfO46UdkV6SqakE6A86xCYCtEsj7/69ej+HemT14WfOf7rz12eB0ec8Ee/HBxxQDTO6CeDI44z+gkget85d/zXWSymjFWYM/rJ8V9ntVvx4Lru4IijK7qu64x+8r5zTiKKfxhLFASdhDBVovlqcaH0pUULSp57mWxWmGhfsBPJrdqwXk+CTqfO3rbyPr3FE7h9Kc7GTHbQKG17aM3Hw587/8WzZLJr/0vaPnD7Un3an06dDdxeWNnhn2Gwc/+Lcxct0KX7X7uW+dqtm6Ev5K88e92u3rAeSZ5OndU+m5oDFXgZKFGYRQhMmmgGR5zrws/8IPnO+8Pnrgs/syl1DK1+ukg94lnWVq7rHs9nrws/syN9UphCCEhsdvyioNTb0trD16P7hIxeyaZk8SW1wG7Hf52VKKKXSZMYb0od+63ZFHe7p0o0m3bvwul3Y9tdO/e/BI5wXdeGaNoeWiO8s3brllUb18k52bryPkF81YZ1Urrz5Zd2vvxS68oVepmGXnFdV4hGu5LEArdfW9ZlsoPiPHDH0rVbt2zavUu2k760aIHknMkOSpXVG9fvC3au2rgucMdSoUhsRW3evUuKmpoDsjzMZAeFvFpXrihMyl5+Sdy2PbRG0pPSm9ruQik3sHTHzTr55ug+nKUVBJsz8wfJd64LP3OiOJFZHn/t+shzzuinQiJCB87op4MjwxLRIBpd95WhlExbQDSyItuUetcZ/fT94XPXR56TfEA02RFH9LJke3/43KbUsWxhW3rYMP56dP8LmTM9H/1yKj01VaJxXXft1i3gmmsn6tj13IZoMkODXZG30QYwl8wIxKGeEMHSEIRoAncsxVQCrmS2Bc7C/lFm6Br1CK/t3P+S8JTh2XVdmYW1PfSXpYquUSGKMkPXCOvjYedM6qw04Uyq7LoaFSnMCgRuju6vwC8o+np0/7jNKfLCNbMXMqexJSwrKSEg13WxdMKMRvZ9v+3Z1gHRSBWhLdd1ZVby23mTEM3hsXtYsEeqzugn3010j+09F6Y/FXapUWtcwQeicV33dOqsXP/BOHLq2hCNkeLR+AlxIrOMa/Rx+9JxH88Ry9Ubfne36zfDjrjatf8l13VlOmPMJoQlv7Rogeu6+4LX7qCt3rDeWAmCTFdvWK/XYq7ryoSl7aE1svEk3xJrX7ATOQSKTTA2fYy283CWIiDkMtHkZdJxfeS5m6P75B+2hPVspSTRyJrrkeQ7RlAQB7hJDMBc5YhmcMTZlDomq6frI89rogErGbEmdOgP0SDk0fhJWTgUVhbZrCXRfOw48rzfjW13YQUkRIM1i1DGbSvv00szxMXSSRON67pSa9PuXTjhN+3epWth1pPJZn8z7MhNNKkVuH0pngbKDA2iXYVZT5E1xI8Yl/wOFmdqm9Xqcu6iBas3rC/XBJ0Y5VmEwOSIRrhgR/ok/v1J7GeyaSK8gNUKWAMzGtd1r488d2fsZwZKIBqZlWBGI8xVYUZTrLhf5lBi7LquwUpGrAkd+kw0rusGIz1y1h2Nn7QhGjzvN3fxgraH1rSObQzjbMwMDerp0pcWLcDiSDfVO6PRRGPIqAiigc99wc7WlStAHCCmzNDgvmDnjW13o2hfcZ9YJi9rt24RYtXf8Hk0frKw/bT42jbzTW13IQEKdYDAJIhGpiTG2kd4ZFPqmAh/EvvZ8V9nsadr7NHIaujpX5w8/uvs36aOPf35zWDx8N1E9/FfZ2VRJks5gztATNdHnlsef61wdymfxZaQYTyVnpoq0Ri3rgsLkLFH+M6kUuMSDRZKuKsNDYgGzcPSpuSWjZdo4EpmFmKAbWZxi61oRBEhMzQolOfde8bsRmZPYma4NbzhELMbb+tgQ2HWITAJopFZg/FEjDP66c3R/bIlvCMdF7ffjr8mnGIQjTP6qTgpPqT3vLgCcRTmI0MpbCd9O/7a4Miwd5ICex1uxy8Kob3GU+mXKRGN3Mf50qIFm3bvPJM6K0+LyJ4Fzk+54OM8xD0aMQB3oA2Y4MipeDp1Fufkx44j3oQ4UEUE8IjMIz52HCER3B7C5AWbLKfHdmp/MPYcEPiusH9W/GnFjW13F2+fDeoi8Sx3qdEE2QmSJ3E27d65a/+LklhQPTuDvWFMdoxW8HA2IjAJorFppjP6KdY+5eyd0U+zFX++kC08d1O4kzXuZ1xX43qoYDAloglGeuTMx2pChLmLF+DODk7vwO1LZQdEqgjRYNLRuvK+tU9uuW3lfVhfFNcg1+4ctz20ZtWG9Tf9qfkUsm6YEI1soBT8jD0Os3lsU+Y3ww72WW5beR+2Y3CjSpglcPvSVRvWy22mpuaAzJ7+VO7BF4vwnA5uJGG5d2PbXTe23SWh5y4uLPGwkJQmSJGxIa1bQXk2InBzdL/NPabZ2DS/cp4S0RQu9cUNFLBDU3OgdeWK0wO/e373N8POqo2FG8BNzYG5ixf8YOsWOfcw5cFqQupmhrJy3spEZl+wE+wAg5KNH5vRFB60QTjMMqSKJINs5y5esHn3LkwupC0gzbmLF6D60fgJvXFzU9vdeoLjuu7msadypDpAkIg6pR9s3YKIJRtCJRGoPwSmSjRARDZBy51CHw87mWx2cqWFxUjF6pKDEI3sm4g9cvMKkq1XL5pypeIWSzlv9QogVCjy+qGGCNQZAr4RTc1x0URT82SYABEgAhoBEo1GgzIRIAJVQaB+iCYYeXtfsPNovPDTMn6IABGYUQjUD9HMKFiZDBEgAhoBEo1GgzIRIAJVQYBEUxVY6ZQIEAGNAIlGo0GZCBCBqiBAoqkKrHRKBIiARoBEo9GgTASIQFUQINFUBVY6JQJEQCNAotFoUCYCRKAqCJBoqgIrnRIBIqARINFoNCgTASJQFQRINFWBlU6JABHQCJBoNBqUiQARqAoCJJqqwEqnRIAIaARINBoNykSACFQFARJNVWClUyJABDQCJBqNBmUiQASqggCJpiqw0ikRIAIaARKNRoMyESACVUGARFMVWOmUCBABjQCJRqNBmQgQgaogQKKpCqx0SgSIgEaARKPRoEwEiEBVECDRVAVWOiUCREAjQKLRaFAmAkSgKgiQaKoCK50SASKgESDRaDQoEwEiUBUESDRVgZVOiQAR0AiQaDQalIkAEagKAiSaqsBKp0SACGgESDQaDcpEgAhUBQESTVVgpVMiQAQ0AiQajQZlIkAEqoIAiaYqsNIpESACGgESjUaDMhEgAlVBgERTFVjplAgQAY0AiUajQZkIEIGqIDBTiGZ0dHRkZOT8+fPDw8MOP0SACEwBgeHh4QsXLoyMjIyOjlaFNibutPZEc/HiRZLLFAYVqxKBSgicP3/+4sWLE2cGn2vUkmguX758/vz5SiCxjAgQAT8QOH/+/JUrV3wmj4m4qxnRcCLjx/ihDyJgi8Dw8HANV1K1IZrR0VFbeGhHBIiAfwjUimtqQDSXL1/mpox/I4eeiMAEEBgeHq7JGqoGREOWmcC4oCkR8BuB8+fPT2R3xR/b6Saaixcv+o0b/REBIjAxBKb/PtR0Ew2nMxMbEbQmAlVAYPonNdNKNNwDrsKYoUsiMBkELl265M+iyM7LtBLNyMjIZCBhHSJABPxGYGRkxI4i/LGaVqK5cOGC33DRHxEgApNBYJpXT9NKNNygmcyIYB0iUAUEhoeH/Zmr2HmZVqKpAlx0SQSIwCQRsKMIf6xINJPsJFYjArMdAX8oxM4LiWa2jxbmTwQmiYAdRfhjRaKZZCexGhGY7Qj4QyF2Xkg0s320MH8iMEkE7CjCHysSzSQ7idWIwGxHwB8KsfNCopnto4X5E4FJImBHEf5YkWgm2UmsRgRmOwL+UIidFxLNbB8tzJ8ITBIBO4rwx4pEM8lOYjUiMNsR8IdC7LyQaGb7aGH+RGCSCNhRhD9WJJpJdhKrEYHZjoA/FGLnZaYTzbt9fRu3b9u4fVv/wMCk+7X7SGT+bUvm37YkdqrP6+Spvc+2P9LR/kjHe6VKvfb2muRAaumK5d9a853Boax9LVoSgelBwI4i/LGa6USz5+CBpuZAU3PgzSO9k0a/+0iknJPkQEqKNj79Y3v/B18PHnojOK79g5seE+fbnnt2XGMaEIFpRsAfCrHz0uhEc8M9dzY1BybEMh9ms03Ngfmtt4w7LJ567lkhmj0HD4xrTAMiMM0I2FGEP1YNTTQfZrN7Dx6Y6FxJ5kc2ROM4zptHet/rK7Fem+YhxXBEwIuAPxRi52X2EU33kUj3kYjjOB8OZbuPRPYcfFkODRw/HMruOfjyU3ufFXu9dEoOpOAEtUSTHEhBIx72HHz50BvBD8c2WT4cym7Yvk1mNMmBVHIgJUXvnYojDYkrReJW79EgsUNvBHU4xBXBm4/jOBLlvVNxw5iHRGASCNhRhD9Ws49ori1GDh2Y37pE5OJpv0SfzE/tvbZmEYOlK5ZrotlYZIqm5oDuGzHYuH2bKIVNtP9Db3T1j23oQN/UHLh/XYfjOPNvKySz5+CBlmWFtZhsKmFvqL/IXx8OZb8/tmsDD3sOlV5VLW0v5Dx3UQvahe2qqeyL6yZTbnAE/KEQOy+zlWiamgO3ti/fuH3b/Y90yEkLjsAJeWv78qf2Pnv/Ix1zFrbg5HccZ1yiAUHcv65j78ED9z/SMb/1lj0HD3yYzd6/riALBdy/ruP+dR2y/yJEo7kvdqoPfoRoJLE5C1vuX9excfs2+AGV6HHfPzAgaT+46THHcZIDKXE+oe0k7ZAyETAQsKMIf6xmK9HIPEKAk4s/Nk3khMSh4zgHX++aENEIE2kPuofuf+Rh72awEE1Tc2Dbc3tgbBCN4ziHXu/CfEQ2lYtVSt+Twl5y95He9lJBEYgCEZgEAv5QiJ2X2Uo0mL9ghjJ3UUth46Z4S8g4e3HCy77vuDMarLza1z2MnRd0ZAWiuWfNd2DmOA7iyoxGF4ks9KTbYtiMcei1RSJIyjDjIRGYBAJ2FOGPVf0Qjey54Nw+9HoXoIfSkmg+zGZlXSPzoPmtS/T96QpEo+dZJYlGdoLbH+louedOTIIqEE3/wIDk0NQceGjT42gRBSIwdQT8oRA7L3VLNJoaJko00oV7Dh64tbgjK6c66GDSRIN9ljkLW1ruufP+ddc2j+DZO3T0nvT81s9teHuNqSECE0LAjiL8sao3osGNIf0w7uSIRvqsf2BAHurDls2kiUY2j4q/SBgS55WXTvqpZb0xPKHBRGMiUA4BfyjEzku9EY3jOGO8sESeUvlwKKtvOTuOg9tS3WM/a8CmjEwuPhzK6l8YyEbsre3LpcM00eD5GqGMyksnmRlhqpUcSAl9lJvRCDFJXOwrIedyo4d6ImCJgB1F+GNVh0SDmzVzFt7Qcs+dcxbeYNze1lswS1csx15J4bcIxedo5GmX+a1L5MeWBkGAlYqeb9C3tysTDRjwwU2PtRduul9LrCTRYNGEDWBUL3k73HJs0YwIAAF/KMTOSx0STeE+1NM/BrnIUkU2d/Frg3f7+rDdO2dhy6E3umSeIud8/8AAHs9pag7MWdiib1p/mM1+a813hH1QZDOjMYJue26PzK28RKMXTRgW3Ud6Jag8WQM9BSIwOQTsKMIfq5lONJNDUGr1DwwMDl3bDSnpp39gAPOFiRoMDg1VrlvSoeM44wYtV5F6IuAvAv5QiJ2XeiYaf3uF3ohAnSFgRxH+WJFo6mzwsDlEwBYBfyjEzguJxrZXaEcE6gwBO4rwx4pEU2eDh80hArYI+EMhdl5INLa9QjsiUGcI2FGEP1YkmjobPGwOEbBFwB8KsfNCorHtFdoRgTpDwI4i/LGa0UQT+fwnmx3/j5aEQqFMJlNnA4LNIQLVQMAfCrHzMqOJpvPw4Uwmkxv75PP5ceEm0YwLEQ2IgCBgRxH+WM10osnlcnpYCOfk8/l0Oq2L8vl8KpXK5XKaaLLZrDbLZrP5fD6TycjMSJwY059MJqOrlLTR+VAmArMXAX8oxM7LLCOaRCLREw73RiLxeLwrGBTKSKVS3aFQIpGIxWIyCXIcJx6P90YiiUSiOxRKp9OO40Qikd5IpCccTiaTuVyuOxSKx+OxWKwnHJaxIgYSIp/PZ7NZ2HSHQprXZu/YYuZEAAjYUYQ/VjOdaDoPH5Z/iUTCcZxEInEsGhWk4sVP4UV2oRC2b2RGk8lkukMhMcvlckIlkUjkeCwmykgkkkpd+8sq0Wg0k8mkUil4FpuecBg2iUQiHucfORFg+F0nCPhDIXZeZjpuP1n+AAAgAElEQVTRGPOIRCIBshA5l8t1Hj6MnheikTlObOwjDKLJpfPw4Wg0KuVCNLFYTLgMrjoPH0b0dDrdGyn8MSl+iEDdIGBHEf5Y1QnRYJ8YROPlBU00Ic9SCPMjDKOuYJBEAzQo1B8C/lCInZeZTjT6rpMsnYwZjeM4PeGwTEYymYzs0eTzeezgyIau7NHopVDf2FIolUrJJjGYJZ1O5/P5RCIhNvl8PqyWUfU34NiixkTAjiL8sZrRRNMdCul/mUwmmUxirwRyNpvtCYe7Q6H+ZDIWi8mNpGw2K1u/vZGIbAbHYjERZFT1xeM94XBPOHw6kZAJUTKZlHDxeDxf/MhWcU843J9MNuZYZKvrGAF/KMTOy4wmmunv40wmE4/HsWKa/gQYkQhMGwJ2FOGPFYnmc92aSqV6IxHcw/pcGQ+IQH0h4A+F2Hkh0dTX2GFriIA1AnYU4Y8Vica6W2hIBOoLAX8oxM4Liaa+xg5bQwSsEbCjCH+sSDTW3UJDIlBfCPhDIXZeSDT1NXbYGiJgjYAdRfhjRaKx7hYaEoH6QsAfCrHzQqKpr7HD1hABawTsKMIfKxKNdbfQkAjUFwL+UIidlxlNNFl+iAARsEZgojRoRxH+WM1oopkocLQnAkTAHgF/KMTOC4nGvl9oSQTqCgE7ivDHikRTV0OHjSEC9gj4QyF2Xkg09v1CSyJQVwjYUYQ/ViSauho6bAwRsEfAHwqx80Kise8XWhKBukLAjiL8sSLR1NXQYWOIgD0C/lCInRcSjX2/0JII1BUCdhThjxWJpq6GDhtDBOwR8IdC7LyQaOz7hZZEoK4QsKMIf6xINHU1dNgYImCPgD8UYueFRGPfL7QkAnWFgB1F+GNFoqmrocPGEAF7BPyhEDsvs4No3jsV7z5i/unr5EBK/wO+yYFUSeMPh7KwoTAbEZBhUK4fkwMpXcRhMG4X21GEP1YznWje7YvPWXhDU3OgqTkwv3XJnkMHAJ8o8d0/kHIcZ8P2bXMWtsxZ2NKy7M7BMWbZsH1bU3Ogf2AAdSnMLgSSA6n5rUvQ1xu2bzPyly6+f12H6DkMDHxKHvpDIXZeZjrRzG9dMr/1ltipvv6BgRvuuXPuohahj3dPxZuaAw9tfnzvwQN7Dx449EaX4zjJgVRTc+DNI70fZrNzFrbsOVhgpXf7CpbbnttTEmsqZwUCMgwOvd715pHe+a23NDUHcBVxHKf7SEQ4SIiGw8CyT+0owh+rGU00/UXiwGVqY3Fi8uaRXsdxDr7e1dQciJ3q05gK+8jUZv5tS7Y996xcCR/a/Lg2ozy7EHj3VLzlnjvlsuE4zlN7n5XLibRCuvj+dR3zb1siQ4XDwLJ//aEQOy8zmmgcx5nfekvLsjtl+X33mtVzFl6b0QjpPLjpsQc3PYYhKBOZ9nUPY620dMXy+a23DA4NWUJPs5mPgB4GjuNIF/cPDIBoOAwsO9GOIvyxmulE825fH1bmcxddWw05jvPg3z7W1Bz4auuSOQtbmpoDLcvuFHDf7eu7tX35t9Z859AbXbJQ59aM5bCb+WYP/u1jcxbeMHdRi6yUZUuuqTnwXl9hYguiKa6XOQzG709/KMTOy4wmmg+HsvOLVLLx6R8/tffZ+a23zG9dkixu+moUH9z0eFNzoLu4pIL+0BuFtdWegwee2vvsnIU3tNxzJ0YnbCjMLgTePNK7cfs2GQaDQ1nZmtn49I+lFZpo0C4OA0DhFewowh+rGU00ew4eKO7jPisYyb7MtueuHQI40W9UdyKwNSNFbx7pfXDT49hIRkUKsxEBDIO716wu3Iu8bYn8a2oOzFl4w9IVy9EoDgNAUVLwh0LsvMxoopFtP2zByBXsoU2PGaiJ2aHXCzee5NOy7M75rbc4jiMXQMdxZF9Z9onHrPj/7ECg+0jvnIU3YMaKy8/B17s2bt+Gf/JMA0aL4zgcBpU72I4i/LGa0UTTPzAwZ2HL/NYlh94IHnojKE9SxE71yZWqfd3Dew6+XNyIuUFoRWDdUJxdy9bMnoMH5i5qSQ6khIz0PdHKfcDSmYOAbO7Ob13y1N5niyvowsacd+vNWDpxGIzbg/5QiJ2XGU00chtbnpuQrV88DrPx6R9Df2v7cgw7udzp7Zj7H+koTqpbUHfcDqDBTEPg3b4+3d2y+2skqYmGw8AAp+ShHUX4YzXTiUYAGhwaKnmLupzegNXSzKjFw5mGwBT7cYrVZxoaU8/HHwqx8zI7iGbqmNIDESACBgJ2FOGPFYnGAJ+HRKBREPCHQuy8kGgaZVSxnUTAQMCOIvyxItEY4POQCDQKAv5QiJ0XEk2jjCq2kwgYCNhRhD9WJBoDfB4SgUZBwB8KsfNCommUUcV2EgEDATuK8MeKRGOAz0Mi0CgI+EMhdl5INI0yqthOImAgYEcR/liRaAzweUgEGgUBfyjEzstMJ5p4PB5Tn0wm4zhOLpeLxWKhUCiZTJYbFNFoNJu99mcPxD6Xy5Uz9upzuVwkEsnn894iQ5PJZOLxeLT4SaUKL0if3CcUCk2uYiPUwjCIx+Po1soNj0aj6XS6so0uTRU/2Wx2QuPEcZyJBtJBK8s2w6+yh8qldhThj9VMJ5pQKHQ6kZBBkEqlZBB0h0L95SlGwI1Go2Cl3kgkk8n0RiL2YyibzR6LRiv3k+M4iUSiKxg8nUiki59YLHY8Fhu3VkmDzsOHS+qpdBxHLiqZTCaZTHYFgzYMEolE7Hk/l8v1xeOnE4lj0aj9IJGumVCgCfVmPB6XMTyhWvbG/lCInZdZQDQG1vl8vtw5mcvlcLnTwyWfz2ezWVwfRMjn89rGcRzDTJeWvNDlcrnOw4cR0dvBuVxOB80XP7DX2f72TZTlGuV124CaUCiEYRCPx8HmRpfpTsT5r/vRkNEXuqKG1+gjXYTQCFTOidSCvXZijCvDJlK8QMLeKBW9HmOwtBTsKMIfq9lHNL2RSOfhw72RSG8k0h0KyZjL5XLdoZAoE4mEXANlaCaTyZ5w+Hgs1huJyJUwFosdi0aPRaPiQbggmUyKt+5QKJ1Oi0PHcbLZLPTGSi2RSPRGzD9rh+6XoMei0b543HGcTCZzPBbrCYe7QyFZl0m2PeGwVCHRVDg9NNHEYrF4EVLds0IZ0mvHi/3bFQzKjEYDCzlWHA8yBnK5XCqV6g6FjkWj0vuyPI8Ux5gMEs1QUtoVDEqg7lBIAul8Bj6/iE6n0zIeukOhcDicSqW84yqTyWCkZTIZmSz3hMMyxiTD47FYdygkIxyN7Z3I3E2D7A+F2HmZBUTTFQyGih8ZXjKPELwSiYQQTSwWMxZTMjSlM2SUgDtisZic/I7jSCeJTz2YYIwrRjab7QoGdT8ZC6Xc2MdxHH2Vk4VbJpPpPHwYIXAt7QmHhRBxDugQlAWBUPGKkkgkhCAE6e5QSC4SuVxO+DoSiWAY9BTPZ2OqKCDLSSue4UGEdDotS+ZYLHa6eMVyHKcvXvjovtD9K4FyuVxXMIiRZgwVzE2y2ayk6h1XsVjMWOuhVj6fl+uT5NAVDGYymXQ6Xe46p1OtINtRhD9Ws4BoflGcX6BjShJNVzCIU1eQFaJJp9NdwWBk7CPjTPeoyLKDo7sERCPz4XQ6nUwmDS7Qc/jf/t2PeDwuVz8Z3GMxI7Kn4A2RyWRSqZRc34zzQWdCWeanpxOJvni8KxgEI3h7VlM5uED3msjxeFwmBRrbfD6fSqUwS9VzqHQ63f35rXpvoJIjDf7j8bhc25LJpF73pdPpVColWYmH47EYFokgGpnswFssFkskEjJEo9GoQU8wG1fwh0LsvMwCogHuAlw5osFkQcxANFibAHcv0cjMFgYyN5axlUwmeyORZDKZTqf1kJXVEMY9cpNauLjBpyYauQLLFnLJCy9qURAEcNpjKertMiFrDIPKRGPMUIRfUqmUdLdQGy5dmUzGGEUlicaw0X0nE5neSOR0IgGilHElU10xxiJOuANEI+ssOBSikUOZ13h5E8YVBDuK8MeqToimNxLBakiISYZmPp/X57wUeYlGzGRgySYxZjQ94bDs7GSzWYNoHMeR7R4Mblz6cAUTPpJvTHSx4svn85zRVDgTUASikUVEMpnUPZvP56VneyMRvX8hpytmu+hBmSDICZ/JZOT2ghymUinpJt2DxhpZVtxGID2EZGsPycvdyWPF2+2ZTEZGS2RsxxAXToyiWCwmu4GwEefSRkFA0pYq+hqmg44r+0Mhdl5mAdF0Hj6Mf3KHGyc8zliZI/SECx9ZpWNoyskfKe4cS5GXaBzHgVlPOCz3AjCjkS062Zzzdt7pRKJb9pBCIdx3z+fz0Wi0JxyWzbxcLqdHg1ygosUN6WNjU180yhuCGvQmJpK5XA5dBtgF2J5w+Jh6rEnuiPeEw7LyEjCl19A7ffG41Do9tsGfz+djxc37UPEmg9AQOqJkIFHqkQZ7WWUnirfPu4t30OTmQzQaTSQS8ghVojiQkFLhb8kXb1DIOPQ6lxEl4TD5QkQbwY4i/LGa6URjgxdsjNEA/RQFuS1d2YmNjeGhStkaUXgoCHjRzmQyx6JR6CHYI1aySkmlkIV4xnWu5Jgxqlc+lDW+fcKGpT8UYuelrojGwJGHRKACAnKDyebZvwpOLItkAhWLxSKRiM2DoJZup2hmRxH+WJFopthZrD5bESg5oaheY2Tvz5ihVC+cjWd/KMTOC4nGpkdoQwTqEAE7ivDHikRThwOITSICNgj4QyF2Xkg0Nj1CGyJQhwjYUYQ/ViSaOhxAbBIRsEHAHwqx80KisekR2hCBOkTAjiL8sSLR1OEAYpOIgA0C/lCInRcSjU2P0IYI1CECdhThjxWJpg4HEJtEBGwQ8IdC7LzMaKLJNt7HZnw0mk3jjYJJtniiA8OOIvyxmtFEM1HgaE8EiIA9Av5QiJ0XEo19v9CSCNQVAnYU4Y8Viaauhg4bQwTsEfCHQuy8kGjs+4WWRKCuELCjCH+sSDR1NXTYGCJgj4A/FGLnhURj3y+0JAJ1hYAdRfhjRaKpq6HDxhABewT8oRA7LyQa+36hJRGoKwTsKMIfKxJNXQ0dNoYI2CPgD4XYeSHR2PcLLYlAXSFgRxH+WJFo6mrosDFEwB4BfyjEzguJxr5faEkE6goBO4rwx4pEU1dDh40hAvYI+EMhdl5mB9G8dyrefSTy4VDWALGk/v2z//RWz1HD8v2z/zQ4OGQoeTi7EPhwKJscSBn/jFEhNlqZHEh1H4kYLU0OpLSNUdogh3YU4Y/VTCead/vi81uXNDUH5N+2556VQZAcSGn9hu3bRP/45h1fCdz8lcDNi275MzDL45t3fPHLX3v/7D81yACq12buOXgAIwHC/es60N4Ph7IyKt480ivKDdu3zVnYMmdhS8uyOwfHLlQbtm9rag70DwygYmMK/lCInZeZTjTzW5fMb73l0Otdbx7pnd96S1NzQIbL/NYlcxa2iP6Ge+5sag50H+ntf3/gi1/+2ltvHx0cHPpK4ObnX/yZ4zixE6e++OWvbd/108YcTPXU6v6Bgb0HD+DfxiJf7Dl4AG38/qbHmpoDG5/+sWiSA6mm5sCbR3o/zGbnLGwRy3f74k3NgW3P7UGthhXsKMIfqxlNNO+eirfccydGkgysN4/09g+kbm1fjvEkF7o9Bw8Ip8jM5Q9bvvF3u57vf3/gD1u+8fC6Jxp2MNVxw+UihAbKMHho8+PQvHuqwCn9AynHcebftmTbc8/KRFjbwLgBBX8oxM7LjCYao+/bH3m4qTkQO9Vn6J/a+2xTc+DQ610ykVm15m+wVrr9rj//o5ZvYg1lVOTh7EUAVxdpQnIgNWfhDfNbb9lz8GXsyMhEpn3dw1grLV2xfH7rLYND3K0rwGZHEf5YzRqikWnwPWu+Y5wbco2a33qL6GMnTt1+98o/u+/Bnx8OyX4Nt2YMxOrjUKYz2HZZumI5dm2amgPzW5dI0bt9fbe2L//Wmu8ceqNL9mu4NYMB4A+F2HmZHUQDNjFGiWz+zW+9xdA7jvPzw6Evfvlrz7/4s7/b+Xxxb7jt54dDgJjCrEZApjNYO8tFCMNg49M/bmoOPLTpMd3GQ290NTUH9hw88NTeZ+csvKHlnjsPvdGlDRpQtqMIf6xmAdFUYJmWZXfOWdjyXp+5mMLWjNDNW28ffXjdlq8EbuYaqj5OJ5nO4OrSfSRS3N+9dkfScZym5sCt7cvRWGzNHHy9QDdvHul9cNPjcxe1YEIEy4YS/KEQOy8znWgmwTKO4yy65c/+qOWbjuM8vmXHH7Z8w3Gc/rOFG1JcRtXBiWRMZxzHkU3fjWOPOHhX2S3L7pTF9cbt20ToL96Qkn3iOsBkck2wowh/rGY00QjLNDUHvrXmO+2PdMi/9071fTiUbVlWuKW9tH059JgJP755xx+1fFM45bkXD30lcHP/2X/6u53Pf/HLX+OMZnIjckbVkidlMJ2R3Ja2L5+7qOWpvc/uOfiyjA39KA1WVXsOHpi7qCU5kJIbCJzR+MMiFl5mNNHI/Wy9yVd4SmL7NpkAG3p5cOu5Fw998ctf09sxq773N1/88te+EriZj9LMKL6YXDLe6Yz46R8Y+Naa78iQKDwyc+gfRC/2uAg5jnP/Ix1NzYE5C1v4KI0FP/hmMqOJZnJj0VtrcHCIcxkvLPWnGRwaMmY6Jds4ODTEO9y8vV1ybFBJBIiAzwj4Nl2xcNQQMxqf+4fuiEBdIGDBD76ZkGjqYsiwEURg4gj4xiIWjkg0E+8f1iACdYGABT/4ZkKiqYshw0YQgYkj4BuLWDgi0Uy8f1iDCNQFAhb84JsJiaYuhgwbQQQmjoBvLGLhiEQz8f5hDSJQFwhY8INvJiSauhgybAQRmDgCvrGIhSMSzcT7hzWIQF0gYMEPvpnMdKKJx+Ox4icej2ez5l9BKNnd0Wg0nU6XLCqpTBU/2Ww2l8uVNCinnGigcn4moa9h6Elk62OVWCyWz+fhMJPJxONxHE5CiMfjyWRyEhV9qZIsfnxxNQknvrGIhaOZTjShUCiZTGYymWQy2RUM2jBIJBJJpQqvibX55HK5vnj8dCJxLBqdKNFMKJBNMvY2NQxtn2Q1LDsPH9bdlEqlukNTep9ZLBZLJBLVSNXGZzKZ7K8dzVnwg28ms4BoMpmM9Fk8Hj8ei4mcz+ez2ay+uEGDk1CPSEPWkyNU1CMjl8tpG10EewT67W+Cy9lLXG9pPp/XKZX0gECIDo0RGhDBsl6FCkQj4OiGe2HXpTKH1UQDeLUZZMObjL1c8QMbbz+KGcZqPp/XnZUvfqR65eg6hF+ybyxi4Wg2EU0sFpN5cjKZ7AmHj8divZGI0EEul+sOhY7HYsei0a5gUGY0nYcPo0sgx4q1jkWjvZFILpeTS+KxaLQ7FJLpUi6Xi0QivcV/3aGQlw66gkEJ1B0KSSBtr7nvty/f7zx8OJFIHI/FJD3JJ5FI9EYix6LRnnBY/EPTHQqFi8pkMtkdColNhTZKaMnfCI2215NQjmgSiURPOCzd6jhOPp/XyHg7sTsUki7oCgZlRpPJZKSPuouTaA2a9tYTDstFQnpHelYWX9qsOxSS7ugOheLxuIwu6WWpIr2cKH4cx0kkEl3BoPRjuSucTskX2YIffDOZBURzvDi5FYKQCwh6MZfL9YTDjuNEIhFMQXvC4XJEo2faMg5yuZwI6XT6WDRa+DtQsdjpsbl0X7zw0Z2qpxIIhJHREw7r65UQjWjy+XxXMJjJZNLpdG/k2h9OzGQyx4ubDl3BoETBlgESSyaTMo8r2UaE7o1EbNaVui2zUS5HNKFQCFA4jgPQ5BwG4NLkWCzWN9at0WhUiAYXlXw+jwEm9nKpgJxMJnO5HDLJZDLSfUZQcdt5+DBGJq52yWRSxhWIBsknEgljyFWvm3xjEQtHs4BoTicSffF4VzAIRugKBiNjH+k89LqQTjmiicfj3gV5Pp9PpVJytXEcJxQKgSzS6bSxBVAykOM4mUwmlUqFxzgOg8NrL9c3Sb8nHJZzQEZ5Pp8/Fo1K8jIJT6VSwrDCWbgya76T0L0T2ZlCerNO0Hg6joMrx+lEQuYOApHGR0hBt1RfD2TplMvl9KDqCgZx5suI6gmHpctk1qN9Qo5EIoaZ9BpCdxeHVj6fj8Vi0ssgGt3d2B9AxSoJFvzgm8ksIBo57Y9Fo3IVSqfTMovR6Ovxh0GGCwj6uzhB+dwMRfgllUolk0k55/W1MZPJGLG8gWRWdTqRkMRAE5KeYZ9Op0tesrB0wtVPNqRSqdTp4jqrJNHo0FHFUBqZOpNlVohGodfkRMUFSaORzWb1SJBrCWZ/mmjg1hC0NykCuUhc8e81w8CTWqlUStZr6GUQTSQSOV5kn9PFhbaRQJUOfWMRC0ezhmhkQptMJmUNIhcubK31RiIyVZHNGjnbcV3CUJN1uMyMMplMPp/vPHxYDmUQOI4Tj8cxr47FYsblxRsolUrBpuSMRq6NMjRzuZzkgPxF6AmHE4lEpvjRY1fP/CuHbpAZjezFCGiCpPQ1JiCRSCSTyWB+KgCig+SMxdJJBpWMnJ5weGDsZiWmtGKvvcnivSTRYAhJD0qSmuN0L8uoE6KRQSux9B2PKvEL3Frwg28ms4ZoZHnSFQzmcjlZ0UQike5QSC4O2Wy2OxSS7UBcWOSOeE84LBc6wVfm2LJmkXvbUgsTB5nZ9oTDoeJ+oQwI9I03kIySaDR6rPjPO6M5Fo3qVB3HOV3cuewJh7EDLWu6eDyObd3jsVikuGHcF4/LVGuioZFznQnSm52HD3cFg5gaRIsgyy0CaW9fcQsWHa1BkC6TfsdqWpSRSCRcHDDa3nEc7U1uV4FBNOkYZsaMRibUupeFaBzHkTXXseKGkUGLRiY+HvrGIhaOZjrRTB1WgymEsI5Fo9BDsI/lreLViDdZOpUrFZt0Oq3HFnajStbyKr0a+4bMXkuZL+j89a1i6CcKTmX7yqWVg2YyGb0nLZdMVJE7ZfpwGmQLfvDNpP6JxtthcoMJq3SvgY8avUdTzm0+n+8Jh6PRaKx4ex5X6XL21M9GBPL5vEy7Zk4v+8YiFo4akWhKXvpqPnbl6QzLa2bNs2UCk0NgRvWyBT/4ZtKIRDO5IcJaRKDOEPCNRSwckWjqbPCwOUTAFgELfvDNhERj2yu0IwJ1hoBvLGLhiERTZ4OHzSECtghY8INvJrOGaDKZTGTsJ0K2QFrYhTw/m7SoRJP6REBuDBlP61VuamhqL6mo7Lzapb6xiIWj2UQ0xs+OfOkGm9vPvgSik5mPQLz4ZqIJ5YnH9iZUa4YYW/CDbyazgGjkPSDyvDl6yHg5CPTy4BNe/yF6/fY8ubeNd5cI0Xi9Ge+L0bWMO9D4mbXOgXKVEBDw8YMD4x0u8hSf0XfeIWE87IdDPU6glOrodGOokGgsqWimE02i+KtceS2LzGjkrR/yvL+8HESPaXmNi7zyQ8aNPJbeHQrJT1pSqZT8ylZeBdB5+LD8uqQ7FMJPnOLFp/7l5SYykU4UX8EnvzPoHnsjQTabxWtx9KO9Oh/KPiIgPyKVn27ISxeBv1CP/GhDOg6vetBDQsZAb/H3UJKY/FRNPMuwERv960354WXJgUeiqQei0b+BxBsb9K/OEomEfuGr/Ni/5LVIfoopLxbQT393Hj4sVIL3xeDNA/h1lf5lo/zqUt4YghdfOY7TG4noTHw8u+gKCMivivAjVVCJ0IS8zwFXi55wOJ1O47esMjER+tC/+ZbLBp7hxDjRP7KXl3iUHHgkmnogGplHyDjD0sl464d+S5B+pxRGZz6fT6fTqVRKxoT+iW3Jdy/gV3biQX4Cbrz6SN5WpQdZMpmU92YhLgXfEdC/ck6n0/oNMtIXeEMIXktkDIlYLIYXAMhP//EaEGOcCOPIu4qkZ0sOPD0GfG9vtR1acoQvZjN66aRfWQaiqfAHAFKpFMaNdJKMs2QymU6nbYgmnU4b76ypTDRYupNoqn1WyLsXcEPAuGBI9JJEo4dENBqViadcTvACKu84wSxV3jvhOA7eCqBbSqKxpKEZTTTykkQ5mWWlbaxijFdDy1VIlk5SFBl7wSV+y28M0M7DhzEVl43hkus174wGA1GGnfdNNHo4UvYFAT2jkVfJSF/jtUReojGGBN7XKa80A215x4ksnGU/SJL3vpXGeAuEL22cTieWHOGL2YwmGnkPSFcwGA6H5T0y0g3et36ge2SHRV5Mnc1mhZ7kvbByZfMSTV88Xu59MT3hsNBQSaKRrQGpi60BZELBdwQ00TiO430tkZdoSppJYr3Fl9qJ7B0noseL7uXQO/A4o7GkoZlONNLBJb+xbClZqpXjWo5roL1Rno0I2HSxjY1sKs9GBLw5W3KEL2azmGi8wFFDBIiAPQK+MIilExKNfb/QkgjUFQKWHOGLGYmmroYOG0ME7BHwhUEsnZBo7PuFlkSgrhCw5AhfzEg0dTV02BgiYI+ALwxi6YREY98vtCQCdYWAJUf4Ykaiqauhw8YQAXsEfGEQSyckGvt+oSURqCsELDnCFzMSTV0NHTaGCNgj4AuDWDoh0dj3Cy2JQF0hYMkRvpiRaOpq6LAxRMAeAV8YxNIJica+X2hJBOoKAUuO8MWMRFNXQ4eNIQL2CPjCIJZOppVohoeH7VGgJREgAtVDYHh42JIjfDGbVqK5cOFC9YCjZyJABOwRuHDhgi8MYulkWolmZGTEHghaEgEiUD0ERkZGLDnCF7NpJZpLly5VDzh6JgJEwB6BS5cu+cIglk6mlWhc1+U2jf1QoCURqBIC58+ftyQIv8ymm2guXrxYJezolggQAUsELl686BeDWPqZbqJxXZdbwpajgWZEoBoITP90xnXdGhDN5cuXuYCqxgCiTyIwLgLDw8NXrlyxnIb4aFYDonFdl7vC4w4IGhCBaiAwOjrqI33Yu6oN0biuOzo6ynlNNUYSfRKBkggMDw9P850mTUM1IxrXdbmGKjkgqGI5kB8AAB+xSURBVCQCviNw4cKFmqyYwDW1JBpJ4uLFi5za+D6w6JAICALnz5+f/ntM4BcItScaSeXSpUsjIyMXLlwg6fAMIQJTRGB4ePjChQsjIyM1XCuBYkSYKURjpMVDIkAE6gkBEk099SbbQgRmKAIkmhnaMUyLCNQTAiSaeupNtoUIzFAESDQztGOYFhGoJwRINPXUm2wLEZihCJBoZmjHMC0iUE8IkGjqqTfZFiIwQxEg0czQjmFaRKCeECDR1FNvsi1EYIYiQKKZoR3DtIhAPSFAoqmn3mRbiMAMRYBEM0M7hmkRgXpCgERTT73JthCBGYrAdBONfvuOyFojIHk1MxQ8pkUEiIAdAtNKNGCWK2MfSXLs6HfvTBaNXRNoRQSIwExHoOpEA8rwssy4RZqAOM2Z6UOJ+RGB8ghUkWgMZnFdFxotg25ECRvoDboh45TvTZYQgRmKgP9EAyIwKAN8cfny5StXrlwufiCIUmwgg3rgU2vARDMUWqZFBIjAGAJ+Eg3OfHBKSUETjdBNOY3QkJdcDLdjbeH/RIAIzFAEJkM0mF9YMouYGWyi5zK6SJOIpiHtRKjHS0CCMbLyQo7MjSJDbxwaxsahNtYykhR7o8hwYhh7S7XBuK5KVp+o0j7KZ599Js6NKnL42WefQQ/BmwyKIMAGGgg6XEklUoITXcUrG2aVDxERQmV7H0ttItZw/Fdo6ThEo097NEBaaxThTAAWQiX621guXSr/AQ3p6lBKLCOBkoe65VeuXMGg9xrb+xy3LoJqS+0fsmFp6KW6VsKhKI3quhS1SnYWLHUI8aY1MDMCaeewMQTtTecAvXYC2SiFXg8qeDOyMhKAmVdveBMDHQtVvErRVNbrxGCPKtAgileQgYomGFXgylvR0CATqVLV8a9jeeVrRCP5SbHOFS1E2yCUq4JpiCGAJrz0cvnyZShFlrqXLl2CE1SXuDIJQk8gGQhGnqLX32iaVqI6lBoT+ISghywcGlW0sbbXISAbgq4LGf61oCtCbyhLRtc2howWjVsRuRke5FCXGrkZRd7qOgdJw7DRHlCko3g9GJqStUQJS0SBAANDA2+GICmVNC6ZrVjCXguQDUCg1w6NNHAoxqgCvdcnbLyCHhhwqKOj1V8w/Op4FWTtq+SkQ6+GvCQimtHR0UuXLo0WP7ARpaYeoRsxMHgHobUgaWtQNAQohdJAABUrNF9XMaAwqiMKzGAADQKhCBoIFYq8yWhjLcObCLpIZGhwqAWj1PBmfygNN7wZSq83L1xeG2i8xrohYgYbZILq4wqoC0v4n4RGelCnoWU41IJhYBx6h4QRAvlLRV1dyzqiIcMMrsQAen3oum6BaLxJiHLcbzntMdfALAPzEc0RmlwgC61ouoEG1AMnmOzomY7OAQlrPhKlkdvly5cNRGCgnUDWgteyJM1pM5Gh8eaMIiNbxEXCRtow8ApGUCRpxPJWNELIHy8WM11Xy3CCpml7Q2kMGJSWdAjPcAgojCI0EJZeA9EYDSxnBn25xMrppWLJdlWugoiGYCQsTgxX+lBCGxqdlRdDbQxLIw2v3khMSKck9VwjmpIeoURNyQbNAJTeMx/soDlFJi/yffHiRX1YUtY24B3QjZEGDgGHkS0GYklLAI1GwWxcwesZVYDhhPzrJpTMxzhXjSg6ugbB69aw1LF0CJhVFlClHCDQIxNojDz1YYWg8KMz11AjJe1EB9V6Q0ZdOZ2MEDA2vKGWVyjpoZwZ/BsC7KE3NBoTXSSyoSl3qPUIZAgSqPI3qKewR2PMaMRdyUiiLFkkRKCXPJibGCRysfgZHR0VQX97LQ2NHIJ0tGCgYLQCOWtBd4kenZCN9gpQ2jO8GVWQjDaAUoxxqG28KcFMBG9KMNB+tNLwqaOjCHUhwAPiGqENPezhoaQ9gPLa4zLrLYJPXVTOP2zQ0pLVxQxOvDbaD4yBmLfUq6lg7A0nxvobDr3GKKosoGJJwUhPHyINYCiCTG+hhFvRwIMhXLly5XczGiNj7QJ+wSZirM9zyKAGLIgqMMvFixc/HfuAcSpwEHyKgKBITM+kjBbJobRL4wgzo8nQT0IwgAaAk3CFukZ6CAEDr3NU0cZihiIcGhqvN1jqIqnlrTuupqSBVmrZ20ajVKeEPGEDwSiCHgL8GBrjEGYVBKOKcehtETReS0RBEQQU2VTXNuMOCe15ojKcy7X5GtHAixSXbIPYGCc2DkEuhqAp5tNPP5VDEYRePvnkEwiQwThShAUUBJkrGbE01yAxrOk0AaFUz7+00mgs8EEIbaBLIWtB5wAZobUrb5LaDyyh1N7gEE60xmgdDuEBTdNFKEVE8WkcGnVhAz00hqAN4BMJGMb6UIx1errVuhQhDAMjCsx0XaQEAREreNN5arfeukYpDHACagPtVucjNqgrZkgPeq3RVSBD8Do3NBUOUQQmkbYUNoOlDG3zJooM9CQCpzqUorl48aJoZKoCohmbtXwqbHL0zD/uDQX/YvsTix7+bvMDK+a1L5vXvqz5gRV3bHj4L7Y/se3nB46e+UfwDujG8GkQDVISAciKGfJEc2BvFKE6BKmiDyFrYXR09PLly/obsbwCspLogB2N0kEliniGK4TW+UNpGKOWISCudqJlbWDUxaG0Gknq6rCBgAyhgYBYAAGt0HCJvfaD0FCWE6CXWPoQIaCUhhiHOroukvGGhDUIaBeUUhHVIcC5kQwMjIqADgIqTs/4R1wRpKVCJqAUIZ1rRAMq0hUML8BdN0ZkfGMygskLKObTTz/96Nf5H7/yD2AW4Zdy34sffuCvn93xy6Gs9oBpEQIhNLIyNOgbr96r0UMBvYuGCyCopfVQlgwHSzEzDnXdkjI6AqVGJl69EQKHqKgFqS42hiUOtQ3CeRtrOClnWcFtBQ/amyEbDr2JoTe1oJ1oD1oWm5IaKCFoh5B1qcjeb28UXatkc+Bf1zVq6SLDvuShTgxAwSfGDNxKkZe1wSeYxxT2aMC4ohV33pDwrpuNE17WNTg02OGjX+cf3be3HKdU1j/87M5fZAdBMVh5IZYR2kBQN0QvvtAcwAdADQ9oL+Zr2if86FqGATwjlhgjHxh4nWgNMoFgBBL9pUuXjFQNJ95DywSM/MWPbkVJPzocDCDo0nFlo5YcGko4MUq1GWQIgA7Ywo/WwKcXCu1K1y0nwx6CWBqHqO6NqIsgG4J4k2/0FGzEp7ZBkRZQXVuKLGbwIwKI5tKlS9dmNLDQtKRjlJP1eS6ywQWfjH2efeNVy1lMOcZZ9PB3/yES/vTTwspLL6lK7iVLMthRlvwFYu+3NjNKdQNhpp0bSm91w0AOgSf6SQcyZMODNzoM4NbwgKx0XUNGYjAGaNqbTQjkY1TUh4gOYy14Q5dMD6lqwfCMhCFoAwSF0hDkUPzDgxYQWpSwhF570LJuEfQVahn2yBxC5bq6uiHDg6HXWZVzrusKAqAhsAqEL0DStK3RRAajo6OYTRgTFtELBeBbSOHRlyY5kfGSzqMv7R0ZGdFco0kHKQEjEJ/e3EETxAy1REBdXQV0BqXXGBW9/r2BtENdUdctmTyMK2eC9LRDVNECZG1phMYh3EotfWi0EXmibkkDXSreKmu8TnQOUld7qNA6GCOuoUET4KTk+PeaaT+oi6y8QjkwjcbCLXxqoaQTxNKW2o+upZFEaLQOpagugkEUJelGZjC/IxqwkVgjmHaNXrl48aI+yQ1y+eSTT0ZGRs795tdtmzd4+WIqmtv/21/n8v8yUvwI4yANCEgSgoGXHjHAGp2BWjKB0oeQUQsaL0pwWNLYW7GkGZTwhkAoEldy2THcem20AWSY6U5HKQRvKSoiKxhrjZihuq4F+5Kl2lLLUquCxluEQN7EtLeSFb1K0Xj1his0CtFRBR6g8SaGIq8AhzaCpAEnPo5/eNazHtCNbEh/jmg0M2HIemHS5x7Oc0wxRBAWGBkZuf2//fVUOKVc3bbNGxAaiylotKD7QPQ6f5GBPoyFsHTbP/nkEzErZ2zUlUPUkgGEuvBvJKOdgDQhoNTIBHlq/95aehDrUpGhgaBzQwgjBxyKoOuiSCu1bPhE8jpPONGCdqL1OmHotbGWYWwoUdG4jkJfQUATtE+R5RsGXicSrrKBTgnoVahiRKn2+EdKWE/pXcLLly8XZjRgGVjrLPWpi3Slq+QQ8wtQzCeffLLxxT3lmGLq+kdf2vuv//qvsoxCUAg6YeQpLcIg0DYYDRBQyzDzVteWWkZFrcS6D4G0IFVGRkZ0FVEaGgCOKBMS4E0EHOr0jLiwAYxGRBgY+nKHRmiYlfTjVXpThYfKAga2F3kdpbJ/ONFo6Opalny8mpJ5aoclDWStgO9x3cIAniFo/9rMi4xhCWNtiSuEcJ8wieaacd5Hg58qTEj4eTQydTap7OH5t16fUEo0JgJEoIYI+E80g+c+WvzwA5VpYuqlzQ+scC5cqCFwDE0EiIA9Av4TTcfeXZY88u2tP/z77tdWbNsk9t/e+sOfvNH5nZ1bLav/8MBP7dtJSyJABGqIgM9EM3juI0uauHntmqtXr/7yo/9+9erVxK/SiV+l5fDf/8f/uPeJRy2dcFJTw6HD0ETAHgGficZ+OtN18r1f5P55XvuyW9Y9+Ho81nXyveVbH5/Xvizxq3RfesCSaJ5+9Wf2TaUlESACtULAZ6IZd3fmvm2bChTz0T9fvXp11Y4nvYTy7a0/lDnOkf7T6174e6+B1jQ/sKJWwDEuESAC9gj4STSxs0nNAl75vm2brl692veLf3rh7W6Zv3ht5rUv+z//5q+eCb16tP/M1atXv731hyVtoDye6rdvLS2JABGoCQJ+Es32Vw/h/C8prHvh7y9euVKyqKRy1L0y7qSG97lrMm4YlAhMCAE/iWb10yWWQppB7vrhuqtXry786+9qZTn5P32v/erVqxUmPlJx9Y4nJ9RgGhMBIjD9CPhJNN/Y2FGONUT/l7u3X716tfl71950Vdm45cG/uHr16oofb65strjjgelHjRGJwKxA4PW3TjjDM+JxMz+JpvK7IO587JFLrvviO92ViUOX7ou85f7bv/2Xxx/RSkPmfvCsGPFMsiYIzLu+/XhfqiahjaB+Eo1BAcZh/sL57n88YSjHPdzfG75w8WJlM6NJPCQCREAQaESi+fW/nn+5t6cyZXhLX3znzX+5MOzVaw1HFREgAiURqE+iGXfp9G//z/+9L/KW5ojK8jNvvPrv//7vq3dU+lECl04lRxiVRMB13fokmsUd4/yW8r8+9bdXr15dNJ6ZsI/cdXr8wAuVyegbj3ZwSBEBIlASgfokmnFvb//ZE49evXr1a9//88rcIaXX/+Wf8/Z2ydFDJRGwRKA+ieb5t16vzCB/vWfXqDuBB/aGP/1k3Af2tr96yBJ0mhGBRkOgPolm3J8gyO+YjvSf/skbnUse+X45Vvq/nnzsJ290vh5/7+rVqw/8ZFs5M9HzJwiNdvKwvfYI1CfRuK5beT94XvuydS/8/dH+M+8PZsr9jmnJI9+X90WEE/FHfrq7MsvwaT37MUfLBkSgbolme+c4P3cCcRzpP534VXpe+7LlTz7+6ono/t7wzWvXyGsigiffhVlloWPvrgYcPWwyEbBEoG6JxrlwoTI1oPSezX/z//77/yfvi8CLr+RQGAeWFYTBcx9ZIk4zItCACEyUaD4Y/Ogb926sBlB+Phks+f3w5Z9WoAZd9L1nfqzfF/EXT//ohbe7v/3UOO+FgAdOZ6oxIOiznhBovvmBztfftW/RW5FTzTdX5ceD/hONc+HCuDs1IItJC4s7HuB0xn4A0bIxEbh31RMbnnjJvu0dj+69d9WP7O3tLf0nGtd1f/rWG5NmEMuKrxzrtW8kLYlAYyJw7ER/4KZVg0PnbJo/OHRu3vXtr3QdszGeqE1ViMZ1XfsFlCWzaLMfvsy/fzDRjqZ9gyJw76onbv3W+nG5Jjt0bvE3H/4v//XxKsFULaJxXdf+jxloEhlX/sZG/uagSoOBbusQgaF//pfF3+xY/M2HK3DNiVOpxd98ePE3OyrYTBGaKhKNc+HCuK/CGpdWDIN7f/Qo/8TKFLuc1RsNgaH/nu94dO+869s7Ht174tTvXk9zcXQ0Fj/7l488M+/69j///t9V9RVZVSQa6U4f11BcMTXaGcL2+ojAW5FT9656Yt717f9xwcpbv7XuP/9Jx/+++Dvzrm+/d9WPpuHlWFUnGtd1XznWO+4Pu42Zi3HY/L0VP33rDR9Bpysi0JgIDA6d6333zIuH3n75lchbkVNVncVohKeDaFzXHTz3kf3fljNY5ocv/5TLJd1nlInArENgmohGcBG6sZzdNH9vxdOv/owUM+uGFBMmAl4EppVoED52Nrn91UOrdzz5jY0d+KMIzd9bsbjjgdU7nnw+/Dp/kw2sKBCBOkCgNkRTB8CxCUSACNgjQKKxx4qWRIAITBIBEs0kgWM1IkAE7BEg0dhjRUsiQAQmicBUiab/g18eT/XLP8s7RM+/9Xr41Enk61y4sP3VQ+9/8CtoJiccP9vP9wdPDjrWqhsEPnaco/ET4zbnaPxEJpt1XTcY6fl42MlkB7siPePWmorBVInGuFf99Ks/GzebxR0P6FfJDJ77aF77sp8fi4xbsbLB9lcLL/erbMNSIlDfCLQ9tKapOVCZa/a91nlT210fDzuu6371jqVH4yfXbt0SuGNpVZHxgWjkxb14JE/uTDsXLhxP9eOVMfpQiEamQvIsnxBN/we/hL3rujCQ9g+e+wgOnQsXBs99JD5d1xWBRFPVgULnMx+BTHawqTnQ9ldr1m7dItl+7BTYJJPNnkmdRf5H4yfAREI0HzsODM6kzspkx3Vd0YsTVJ+c4BvRyAk/r33Z6h1P/jwamde+TB6QOZ7qf/+DXzU/UHhGZl77ssFzHy3ueACHz7/1usxoFj/8AOwLNsXDwpM1Dz9QWFsVX0Xc/L0VzQ+seP+DX21/9VDBw8MP3PujR8N9J+e1L8PEanIosBYRqAMENu3e1bpyxdH4iS8tWiATllUb1t/0p3fd2Hb33EULdu1/6TfDTuD2pTe23R24Y+mu/YUXYgnR7At2yoxGjAOFac6JTHYQxvtf65wiPn4SjfwVBPmBtey5yORF5hrHU/2yiSNP5bmu+42NHfKivHnty+Qh4OYHVqze8aT8DnPw3EfvZ341r32ZkJFz4YK8kPiHL/9UHP70rTfe/+BX39jYIS+OkFpThIPVicDsRSBw+9J9wQIjfHWMR1ZtWN/20F+6rrtz/0utK1e4rnu6OLUBs2iiyWSzetnV9tCatofWZLJZGE8FGT+JRuYmHXt3vf/Br+594lGZoXTs3TV47iN5X4RMT7BHc+8Tj4JoZI9mcUdhkrL66Sfxd1TmtS/r2Lsr3HdSOxSikXWWGLiuy6XTVMYB6852BI7GTzQ1B25su/u2lffNXbSgdeV9ruuu2rB+9Yb1ruvuC3YK0WzavfPGtrsCdyyVKYwmGtd1N+/eVSi6femZ1NnbVt7XuvK+1UUPa7c+MUV8/CGa46n+nx+LyHpHaGX1jifl5cFCNIPnPpI/Lxf+x5MlieaHB376/geF+UvH3l2yUOr/4JdvnToxr33ZK8d6mx9Y0bF3l8xoCgbFfV8hGpkW9X/wy9U7nuRm8BRHA6vPXgRWbVjX9ldrjsZPHo2fDL7ztsxNDKIJRnpkVRWM9JQkGtmOaV1536bdu9Zu3SJs9bHjYNdm0vj4QDTyY+vm762490ePyopJ3hnc/L3COqhj7y78qVxZVZUkmnt/9KhstcguL37qLfen5K96L+544BsbOwyiCZ8q7NFIdBLNpMcBK85qBGQbOBh5G61oXXnf2q1bDKI5nTobuGPpjW134TaTntEUNmWKpYE7lmaGspmhQdncwYYOnE9CmCrRlAvpfabGqzHqGgayKQMboxR62YSuUKotKRMBIiD7xOVwMCYvlY3LOfHqq0U03kjUEAEi0LAIkGgatuvZcCIwfQiQaKYPa0YiAg2LAImmYbueDScC04cAiWb6sGYkItCwCJBoGrbr2XAiMH0IkGimD2tGIgINiwCJpmG7ng0nAtOHAIlm+rBmJCLQsAiQaBq269lwIjB9CJBopg9rRiICDYsAiaZhu54NJwLThwCJZvqwZiQi0LAIkGgatuvZcCIwfQiQaKYPa0YiAg2LAImmYbueDScC04cAiWb6sGYkItCwCJBoGrbr2XAiMH0IkGimD2tGIgINiwCJpmG7ng0nAtOHAIlm+rBmJCLQsAiQaBq269lwIjB9CJBopg9rRiICDYsAiaZhu54NJwLThwCJZvqwZiQi0LAIkGgatuvZcCIwfQiQaKYPa0YiAg2LwBcuj31GR0cvFT+jns/FixdFd7H8B5XEZHR01GsLpQg41JYI5BVghiJoLl68eOnSJTmEWx0FSmkLLA1X+tCQdSwNCDyLPQ5hU9KPzg3J6NwMGTaoqAPp3EqmgeqwhB+t0UrIOn80qlx68FZSMHIzPEsVxC3pwYhb0qF40NW1GYLqQJC9dbWfCrIOYSSJWnCOcCiCoNODGSqKGWxQq+bjH+xx6dIlSU/IRNjlypUrBaK5cuXK5cuXwTJi6j0ElBBKDjuUlhTELXpCbACf4VB7QJUKNtobfGonMBBW0h1pmJWrXjk6UIYZNNo/SqV7ZJQgN22JDHUVrfT692pgrz2LQ3xD0DZGxZI2otS1vBpppraxkQ1YvG7L9RGcSxUvIHClh4Eo9Tf8lBPgB7WgKVelLse/NOrSpUugEZGFW4ReviD/jU1rrtENaoqgUYMGNhhG0EjX6m+vjVeDAQE/Etc41EpxUrIilN7kvYlBI7GMKjpVb5E3H6893BpZoWmXL1/WfpBPyXCoZZghipGADgpZ14UMzwawOg3IMNaCDg238Ibo0Bj2qIK2wDksIcCbFiBrPLWsQ8CVCN662kA7gT28aY2hREVtA89oIKJDg4pAQzTwowXIOjrsva6McEZ1VNTeUAXeYCYEgsxFAKsUZjRCNJpuwEaopokKSi1oA5H1t0F15SqW1GvP2qCcXM5eAwEbrwC3RhEOYVBS0FG8MEoVw6akHyDmjYvqUgQD41C7hQ0S0KWIBaVhX8EAlhDgBANUa7SZyGiOmBmHuq6lgTfbkhp41ilBaVQpZwN7bYB2aSfaALW0gVZqfbmKhj0Oy9lrYGHjFbx+xAaWMDAE8Y8oIlxRnwLRaK7RjIPK0nKbkBUSQlFJP4iFXAE3Kuq2GWba5sqVK9pSZG2gZcMSaaBWOWOdAIwNQeNmBNKW5ULoKtpGZJ2AIeuKWtZOdALaBnpE0aVeDyj1FkEDAcYTFWw8iA2gwKHuBUOp09BFJfXlDLzGWgNZqpcb1ZI2vqVWhYhopm6d1KrJ+McOjBawdLo2owHXSPbGIRo/rgCSEg84NCpeunRJF0EWyHAIlKU6ADW8lTODHx0OSq8TFOlAWvZWMTTiQcLpoEaGqCX2iAt9ScEwMw6NKjptLRtm3kNxK1UQwvAg49hb16sRD9onzh8YIwo0Gi4jtNhoh6glliXtxaZCEZxAKJkVSssJqNXI4x9EAxBEKNzehkozkKEEuKLHoRZQJIh7v7UxEjKUOgdvkWgq5IbqRl0MAkNvHKIJOpC20X50GmiObrVORleEc3jWtYwcYOOtpYu0fy1rG8gw8MYyMtFVdK1x9drAkOFH4wObcQUjZ/QC3EKjXelahixm5RqOnoUZAmn/ui1eVyWrlFTCT7lSw0Cbiaxbhwy1GZRewahrHJaEAp41kyATuZ3/uRmNOC35LQnBI5qKwEYt2Ot4qOU1hmfYQ0AtDYp40FHgE/aw0a7gBBGNJujq8C9K13UvX74s3/CjbXRdBEViRj6oCAPxjEOvgaHRmXtl7QeyCPADAXoIUuQ1gB4NhA1ygI0BCKoY+eigKII3Q6MPERpKLXijo1RX1NlCNlKFvTaAjTcQ7GFjdC4ygQGqwJuBAEJrA8hwaGi0E8MDDpGDFkTW1SuPf0kAtKIPhYCu7dEg0ZJCufoGh6Eu9N6KV65cMZSoBQHVxVj0rut+9tlnsIHSq0F1LXiDotTwoIPqKNoD6kIo1y7UMiwRFAa6dVDqWqhSQRCUvLW0ZlznYoBvDQjqamR022EAAdXhUJLRKaFFuhaU8KA1kI1TC3otAFuELhldV9GykZXREG0pMpx7K2qsvBWN6rrhs338X3sy2Gg/kLLBQtvojvQ6qawpWdfoKsTSrryy1niroBTOIYixGGgzdDmKIBj+UUu7gg0Ewwz+K9fSpTpnrzcEguBNWHd6yVLU1XFLKiUZnZJ2jirePA2N4aFkRV1FyzCGIKXaRmugh9LQwI9XgKVRpF15bSprStadHCDeQHqAoRTOIUhzkIn3EEUQgIBXo4OW+AkCvEtNY8RAiQCwL6kpZ49a2sBoMBLVNojiVYoGegjwM25dZKWraD8w8KZauYoOXc6heECpEUIfio2hgRJJlksJIUoawK0I5dxqJ2iddmjIsEFFPdHQUWAAQbvSWcGnNjBkbVOyCFEgiBkOAUjJ6uIfxggnGq8eBkYU7yHClXTiVRoRtYGW4dbIBIcV/IjNuF1gGLiuW4JoYATB8K6Tho1XAHAoqqz57LPPYAnhypUrWi9DE0BgpQB7Q/BGhDcUAV+jmTBAONEYehyKZxwamRiH5Vx5qxsab0XDsxwabUETtADLkh68ynKZGCkBT/g3NF7PsPQWGc61QckiKEWAPQ69go6OUlQUxAy9TYuMKl7kDQ1GphFa62fv+LciGt1yykSACBCBiSJAopkoYrQnAkRgwgiQaCYMGSsQASIwUQRINBNFjPZEgAhMGIH/H6g6Pbi239KVAAAAAElFTkSuQmCC;" vertex="1" parent="1">
          <mxGeometry x="30" y="340" width="185.28" height="272" as="geometry" />
        </mxCell>
        <mxCell id="oUqmdAfL7spH68sdHYfP-8" value="" style="endArrow=none;html=1;rounded=0;" edge="1" parent="1">
          <mxGeometry width="50" height="50" relative="1" as="geometry">
            <mxPoint x="40" y="370" as="sourcePoint" />
            <mxPoint x="40" y="330" as="targetPoint" />
          </mxGeometry>
        </mxCell>
        <mxCell id="oUqmdAfL7spH68sdHYfP-9" value="&lt;font style=&quot;font-size: 10px;&quot;&gt;Dados da Empresa (nome. end, consumo, gasto)&amp;nbsp;&lt;/font&gt;" style="text;html=1;align=center;verticalAlign=middle;whiteSpace=wrap;rounded=0;" vertex="1" parent="1">
          <mxGeometry x="215.28" y="400" width="230" height="20" as="geometry" />
        </mxCell>
        <mxCell id="oUqmdAfL7spH68sdHYfP-10" value="&lt;font style=&quot;font-size: 10px;&quot;&gt;Text&lt;/font&gt;" style="text;html=1;align=center;verticalAlign=middle;whiteSpace=wrap;rounded=0;" vertex="1" parent="1">
          <mxGeometry x="97.64" y="280" width="50" height="20" as="geometry" />
        </mxCell>
        <mxCell id="oUqmdAfL7spH68sdHYfP-11" value="" style="endArrow=classic;html=1;rounded=0;" edge="1" parent="1">
          <mxGeometry width="50" height="50" relative="1" as="geometry">
            <mxPoint x="40" y="330" as="sourcePoint" />
            <mxPoint x="100" y="290" as="targetPoint" />
          </mxGeometry>
        </mxCell>
        <mxCell id="oUqmdAfL7spH68sdHYfP-13" value="" style="endArrow=classic;html=1;rounded=0;" edge="1" parent="1">
          <mxGeometry width="50" height="50" relative="1" as="geometry">
            <mxPoint x="205.28" y="370" as="sourcePoint" />
            <mxPoint x="285.28" y="370" as="targetPoint" />
          </mxGeometry>
        </mxCell>
        <mxCell id="oUqmdAfL7spH68sdHYfP-14" value="" style="endArrow=classic;html=1;rounded=0;" edge="1" parent="1">
          <mxGeometry width="50" height="50" relative="1" as="geometry">
            <mxPoint x="205.28" y="420" as="sourcePoint" />
            <mxPoint x="460" y="420" as="targetPoint" />
          </mxGeometry>
        </mxCell>
        <mxCell id="oUqmdAfL7spH68sdHYfP-20" value="" style="edgeStyle=orthogonalEdgeStyle;rounded=0;orthogonalLoop=1;jettySize=auto;html=1;" edge="1" parent="1" source="oUqmdAfL7spH68sdHYfP-16" target="oUqmdAfL7spH68sdHYfP-19">
          <mxGeometry relative="1" as="geometry" />
        </mxCell>
        <mxCell id="oUqmdAfL7spH68sdHYfP-16" value="" style="dashed=0;outlineConnect=0;html=1;align=center;labelPosition=center;verticalLabelPosition=bottom;verticalAlign=top;shape=mxgraph.webicons.java;gradientColor=#DFDEDE" vertex="1" parent="1">
          <mxGeometry x="470" y="380" width="90" height="82.4" as="geometry" />
        </mxCell>
        <mxCell id="oUqmdAfL7spH68sdHYfP-18" value="&lt;font style=&quot;font-size: 10px;&quot;&gt;@PostMapping(&quot;/empresa&quot;)&lt;/font&gt;" style="text;html=1;align=center;verticalAlign=middle;whiteSpace=wrap;rounded=0;" vertex="1" parent="1">
          <mxGeometry x="447.64" y="464.8" width="134.72" height="22.4" as="geometry" />
        </mxCell>
        <mxCell id="oUqmdAfL7spH68sdHYfP-19" value="" style="sketch=0;pointerEvents=1;shadow=0;dashed=0;html=1;strokeColor=none;fillColor=#DF8C42;labelPosition=center;verticalLabelPosition=bottom;verticalAlign=top;align=center;outlineConnect=0;shape=mxgraph.veeam2.oracle_db;" vertex="1" parent="1">
          <mxGeometry x="670" y="397.1" width="54" height="48.2" as="geometry" />
        </mxCell>
      </root>
    </mxGraphModel>
  </diagram>
</mxfile>
